<?xml version="1.0" encoding="utf-8"?>
<!-- Generator: Adobe Illustrator 24.3.0, SVG Export Plug-In . SVG Version: 6.00 Build 0)  -->
<svg version="1.1" id="Layer_1" xmlns="http://www.w3.org/2000/svg" xmlns:xlink="http://www.w3.org/1999/xlink" x="0px" y="0px"
	 viewBox="0 0 164 105" style="enable-background:new 0 0 164 105;" xml:space="preserve">
<style type="text/css">
	.st0{fill:#B3B4B8;}
</style>
<g>
	<g>
		<g>
			<path class="st0" d="M60.9,53c0,17.6,8.9,33.2,22.4,42.6c13.4-9.5,22.2-25.1,22.2-42.8c0-17.5-8.6-33-21.8-42.6
				C69.9,19.5,60.9,35.2,60.9,53z"/>
		</g>
		<g>
			<path class="st0" d="M53.6,53c0-19.1,9.1-36.1,23.2-46.9C69.7,2.4,61.6,0.3,53,0.3C24,0.3,0.6,23.8,0.6,52.8S24,105.2,53,105.2
				c8.5,0,16.5-2,23.5-5.6C62.6,88.8,53.6,71.9,53.6,53z"/>
		</g>
	</g>
	<g>
		<path class="st0" d="M112.6,104.5c-28.4,0-51.5-23.1-51.5-51.5c0-28.4,23.1-51.5,51.5-51.5c28.4,0,51.5,23.1,51.5,51.5
			C164.1,81.4,141,104.5,112.6,104.5z M112.6,8.7C88.2,8.7,68.4,28.6,68.4,53c0,24.4,19.8,44.2,44.2,44.2
			c24.4,0,44.2-19.8,44.2-44.2C156.9,28.6,137,8.7,112.6,8.7z"/>
	</g>
</g>
</svg>
